<svg version="1.1" id="Layer_1" xmlns="http://www.w3.org/2000/svg" xmlns:xlink="http://www.w3.org/1999/xlink" x="0px" y="0px"
	 width="100%" viewBox="0 0 512 512" enable-background="new 0 0 512 512" xml:space="preserve">
<path fill="#020202" opacity="1.000000" stroke="none" 
	d="
M513.000000,193.000000 
	C513.000000,299.973999 513.000000,406.447998 513.000000,512.960999 
	C342.401001,512.960999 171.801971,512.960999 1.101477,512.960999 
	C1.101477,342.442688 1.101477,171.885315 1.101477,1.163961 
	C171.666534,1.163961 342.333252,1.163961 513.000000,1.163961 
	C513.000000,64.864655 513.000000,128.682327 513.000000,193.000000 
M465.260345,205.957489 
	C459.330658,204.751602 458.628418,200.455643 458.634766,195.370636 
	C458.699951,143.379257 458.624420,91.387680 458.728363,39.396431 
	C458.743805,31.668760 459.485596,23.942539 459.902802,15.997489 
	C458.961945,15.997489 457.137909,15.997490 455.313873,15.997489 
	C420.486267,15.997472 385.658661,15.999364 350.831055,15.995913 
	C343.400665,15.995176 342.033752,15.040511 339.518250,8.110301 
	C333.232117,8.110301 326.916992,8.110301 320.640869,8.110301 
	C318.293976,14.912981 316.741333,15.995538 309.340485,15.995789 
	C230.853394,15.998455 152.366287,15.997225 73.879189,15.999171 
	C72.213043,15.999212 70.538635,15.922088 68.882248,16.056078 
	C62.954147,16.535614 58.050262,20.422253 57.823906,26.333248 
	C57.354652,38.587044 57.682312,50.871353 57.682312,63.674099 
	C59.877579,63.674099 61.828808,63.674103 63.780033,63.674103 
	C176.428177,63.674110 289.076324,63.666386 401.724487,63.707325 
	C405.535309,63.708710 409.469574,63.681889 413.134521,64.556068 
	C426.395447,67.719131 434.120605,78.541252 434.122955,93.513031 
	C434.138550,192.330124 434.131317,291.147217 434.131470,389.964294 
	C434.131470,391.896240 434.131470,393.828186 434.131470,396.002472 
	C436.574829,396.002472 438.391144,396.002197 440.207458,396.002502 
	C455.050232,396.005066 458.673859,392.347473 458.674042,377.360870 
	C458.674561,330.368591 458.669556,283.376312 458.680786,236.384033 
	C458.682495,229.173477 459.726776,227.716766 466.705933,226.011993 
	C472.287018,226.993301 473.710266,230.841614 473.695068,235.867722 
	C473.645142,252.360519 473.677917,268.853577 473.677795,285.346527 
	C473.677551,317.332855 473.739868,349.319397 473.651154,381.305481 
	C473.600983,399.397278 461.959595,410.902557 443.910339,411.000671 
	C440.791718,411.017639 437.672913,411.003082 434.313354,411.003082 
	C434.313354,431.124969 433.780609,450.761902 434.647705,470.336823 
	C434.898071,475.989227 438.198608,482.218079 441.799805,486.866272 
	C449.953064,497.389893 464.864380,500.629242 477.633392,495.908691 
	C490.252502,491.243500 497.981873,480.106720 497.983795,466.259430 
	C498.003967,321.154724 497.996643,176.050034 497.990875,30.945341 
	C497.990814,29.614290 498.041107,28.263039 497.841980,26.955622 
	C496.881714,20.651190 491.437836,15.868597 485.508026,16.031956 
	C479.117615,16.208002 474.169739,21.190044 473.746979,27.946070 
	C473.632690,29.772196 473.680298,31.609438 473.680176,33.441578 
	C473.677063,87.418526 473.682495,141.395477 473.670959,195.372421 
	C473.669403,202.656952 472.332520,204.473709 465.260345,205.957489 
M216.500000,498.001129 
	C287.834259,498.001129 359.168488,498.001129 431.303680,498.001129 
	C422.230743,487.671112 419.077820,476.513855 419.086151,464.035248 
	C419.168335,341.059570 419.136749,218.083771 419.133881,95.108025 
	C419.133606,82.716217 415.095490,78.671646 402.673370,78.671066 
	C279.197723,78.665321 155.722061,78.664589 32.246414,78.672318 
	C20.264482,78.673065 16.000483,82.951851 16.000071,94.882126 
	C15.997618,166.201401 15.999383,237.520660 15.998009,308.839935 
	C15.997858,316.644867 15.088786,317.998840 8.099200,320.605011 
	C8.099200,326.900513 8.099200,333.217987 8.099200,339.503479 
	C14.775373,341.622589 15.994260,343.268402 15.995505,350.237122 
	C16.002327,388.396271 15.989526,426.555420 16.019014,464.714539 
	C16.021067,467.368958 16.015928,470.080109 16.515434,472.668091 
	C19.470346,487.977844 32.287685,497.974823 49.032829,497.986359 
	C104.521866,498.024567 160.010941,498.001007 216.500000,498.001129 
z"/>
<path fill="#E5EAF4" opacity="1.000000" stroke="none" 
	d="
M216.000000,498.001129 
	C160.010941,498.001007 104.521866,498.024567 49.032829,497.986359 
	C32.287685,497.974823 19.470346,487.977844 16.515434,472.668091 
	C16.015928,470.080109 16.021067,467.368958 16.019014,464.714539 
	C15.989526,426.555420 16.002327,388.396271 15.995505,350.237122 
	C15.994260,343.268402 14.775373,341.622589 8.099200,339.503479 
	C8.099200,333.217987 8.099200,326.900513 8.099200,320.605011 
	C15.088786,317.998840 15.997858,316.644867 15.998009,308.839935 
	C15.999383,237.520660 15.997618,166.201401 16.000071,94.882126 
	C16.000483,82.951851 20.264482,78.673065 32.246414,78.672318 
	C155.722061,78.664589 279.197723,78.665321 402.673370,78.671066 
	C415.095490,78.671646 419.133606,82.716217 419.133881,95.108025 
	C419.136749,218.083771 419.168335,341.059570 419.086151,464.035248 
	C419.077820,476.513855 422.230743,487.671112 431.303680,498.001129 
	C359.168488,498.001129 287.834259,498.001129 216.000000,498.001129 
M33.271450,237.778885 
	C34.947903,244.249268 36.352951,245.247681 44.081573,245.248062 
	C159.734161,245.253937 275.386749,245.254181 391.039337,245.247986 
	C399.784485,245.247513 401.931732,243.086868 401.932617,234.367813 
	C401.937012,191.706345 401.935791,149.044876 401.933533,106.383400 
	C401.933044,96.948387 399.959290,94.964577 390.568726,94.964455 
	C275.249420,94.962967 159.930130,94.962921 44.610828,94.964500 
	C35.220417,94.964630 33.241558,96.954697 33.241013,106.412727 
	C33.238510,149.907425 33.241512,193.402130 33.271450,237.778885 
M124.500076,270.812317 
	C97.501541,270.812439 70.503014,270.804840 43.504486,270.817474 
	C35.641396,270.821167 33.248337,273.118256 33.245594,280.808136 
	C33.226963,332.972076 33.226440,385.136017 33.246429,437.299957 
	C33.249306,444.803131 35.662476,447.241730 43.072723,447.245056 
	C88.736992,447.265381 134.401276,447.265930 180.065552,447.244141 
	C187.398254,447.240631 189.822205,444.742462 189.824585,437.233398 
	C189.841171,385.069458 189.841827,332.905518 189.823776,280.741577 
	C189.821198,273.260101 187.394028,270.830872 179.997223,270.821075 
	C161.831543,270.796997 143.665802,270.812622 124.500076,270.812317 
M166.500137,464.740143 
	C125.191475,464.740417 83.882812,464.728394 42.574165,464.754883 
	C36.750690,464.758606 33.285721,467.625275 33.301590,472.179596 
	C33.317398,476.716888 36.855785,479.603027 42.598759,479.755890 
	C43.264561,479.773621 43.931232,479.759155 44.597500,479.759155 
	C159.861984,479.759186 275.126465,479.759735 390.390930,479.757874 
	C398.252258,479.757751 402.088593,477.131897 401.895538,471.909576 
	C401.712494,466.957581 398.159210,464.741425 390.367035,464.741241 
	C316.078064,464.739502 241.789108,464.740143 166.500137,464.740143 
M281.500092,270.811066 
	C262.171082,270.812256 242.841949,270.779388 223.513123,270.837799 
	C218.495636,270.852966 215.183792,273.869781 215.126495,278.121368 
	C215.069382,282.358429 218.349442,285.453705 223.305374,285.799957 
	C224.300583,285.869476 225.304199,285.822540 226.303940,285.822571 
	C281.124969,285.823181 335.945984,285.831482 390.766998,285.791840 
	C392.899414,285.790314 395.685547,286.075592 397.014252,284.911469 
	C399.141602,283.047607 401.347992,280.186523 401.614532,277.553894 
	C401.969482,274.048584 399.306152,271.444153 395.467102,270.941040 
	C393.825867,270.725952 392.140961,270.815643 390.475891,270.815399 
	C354.483978,270.809814 318.492035,270.811127 281.500092,270.811066 
M231.534470,318.033661 
	C284.360199,318.033661 337.185913,318.034698 390.011658,318.029205 
	C391.843628,318.028992 393.719147,318.203064 395.498657,317.879547 
	C399.430206,317.164856 401.746948,314.583740 401.820801,310.644043 
	C401.895142,306.676666 399.568237,304.104950 395.717712,303.196289 
	C394.290222,302.859436 392.732666,303.041595 391.234406,303.041443 
	C336.075684,303.035950 280.916962,303.036804 225.758255,303.037292 
	C224.758438,303.037323 223.754364,302.984772 222.759521,303.056763 
	C218.218216,303.385406 215.036575,306.582642 215.129883,310.679901 
	C215.219437,314.612274 218.246857,317.686127 222.554291,317.970337 
	C225.209564,318.145569 227.884537,318.022705 231.534470,318.033661 
M286.500153,367.739929 
	C268.670746,367.739929 250.841339,367.734955 233.011932,367.744019 
	C229.346893,367.745880 225.672852,367.650330 222.019241,367.870178 
	C217.913788,368.117218 215.580597,370.742859 215.232224,374.600159 
	C214.877991,378.522461 216.954605,381.317993 220.861298,382.328156 
	C222.440201,382.736359 224.151932,382.742279 225.803284,382.742859 
	C280.957825,382.762360 336.112366,382.764221 391.266907,382.735901 
	C393.076538,382.734985 394.970001,382.670654 396.678131,382.153168 
	C400.326233,381.048004 402.148224,378.249725 401.798828,374.557617 
	C401.454224,370.916443 399.304260,368.410217 395.466736,367.914520 
	C393.659698,367.681091 391.808716,367.746460 389.977661,367.746033 
	C355.818512,367.737732 321.659332,367.739929 286.500153,367.739929 
M267.500000,400.003479 
	C252.836349,400.004944 238.172424,399.955261 223.509201,400.036163 
	C218.507019,400.063751 215.190918,403.141418 215.127502,407.405914 
	C215.063675,411.697815 218.375061,414.777313 223.302155,414.989868 
	C224.133789,415.025726 224.968277,414.996368 225.801437,414.996368 
	C280.956909,414.996460 336.112366,414.996918 391.267853,414.993805 
	C392.600220,414.993744 393.962860,415.127899 395.259430,414.901703 
	C399.435669,414.172974 401.857239,411.538330 401.812225,407.364288 
	C401.769684,403.420959 399.376251,400.883759 395.462128,400.146698 
	C393.848083,399.842804 392.140350,400.007812 390.475250,400.007599 
	C349.816833,400.002289 309.158417,400.003479 267.500000,400.003479 
M261.500153,432.240570 
	C251.169159,432.240570 240.838150,432.225769 230.507202,432.249817 
	C227.512360,432.256775 224.464142,432.045258 221.535950,432.521454 
	C217.397507,433.194397 214.949890,436.019409 215.225174,440.216156 
	C215.494186,444.317200 217.968063,446.906769 222.314316,447.193451 
	C223.808228,447.291992 225.311935,447.257568 226.811157,447.257721 
	C256.970947,447.260803 287.130768,447.260620 317.290558,447.259918 
	C342.618103,447.259308 367.945740,447.283875 393.273193,447.233368 
	C398.431152,447.223083 401.677612,444.423859 401.892700,440.173187 
	C402.115021,435.779480 398.697144,432.547760 393.469727,432.259521 
	C392.140594,432.186279 390.804260,432.240967 389.471252,432.240967 
	C347.147552,432.240540 304.823883,432.240601 261.500153,432.240570 
M266.499847,350.260101 
	C308.488831,350.260040 350.477783,350.268555 392.466766,350.250122 
	C398.372314,350.247528 401.798248,347.548157 401.895111,342.999115 
	C401.991943,338.452789 398.467010,335.275299 392.769012,335.270569 
	C336.617157,335.223999 280.465179,335.224792 224.313278,335.268982 
	C218.594696,335.273468 215.063110,338.406494 215.126572,342.944122 
	C215.190125,347.488495 218.644470,350.234161 224.510605,350.248596 
	C238.173599,350.282196 251.836731,350.259796 266.499847,350.260101 
z"/>
<path fill="#D5DFEE" opacity="1.000000" stroke="none" 
	d="
M465.975586,225.852783 
	C459.726776,227.716766 458.682495,229.173477 458.680786,236.384033 
	C458.669556,283.376312 458.674561,330.368591 458.674042,377.360870 
	C458.673859,392.347473 455.050232,396.005066 440.207458,396.002502 
	C438.391144,396.002197 436.574829,396.002472 434.131470,396.002472 
	C434.131470,393.828186 434.131470,391.896240 434.131470,389.964294 
	C434.131317,291.147217 434.138550,192.330124 434.122955,93.513031 
	C434.120605,78.541252 426.395447,67.719131 413.134521,64.556068 
	C409.469574,63.681889 405.535309,63.708710 401.724487,63.707325 
	C289.076324,63.666386 176.428177,63.674110 63.780033,63.674103 
	C61.828808,63.674103 59.877579,63.674099 57.682312,63.674099 
	C57.682312,50.871353 57.354652,38.587044 57.823906,26.333248 
	C58.050262,20.422253 62.954147,16.535614 68.882248,16.056078 
	C70.538635,15.922088 72.213043,15.999212 73.879189,15.999171 
	C152.366287,15.997225 230.853394,15.998455 309.340485,15.995789 
	C316.741333,15.995538 318.293976,14.912981 320.640869,8.110301 
	C326.916992,8.110301 333.232117,8.110301 339.518250,8.110301 
	C342.033752,15.040511 343.400665,15.995176 350.831055,15.995913 
	C385.658661,15.999364 420.486267,15.997472 455.313873,15.997489 
	C457.137909,15.997490 458.961945,15.997489 459.902802,15.997489 
	C459.485596,23.942539 458.743805,31.668760 458.728363,39.396431 
	C458.624420,91.387680 458.699951,143.379257 458.634766,195.370636 
	C458.628418,200.455643 459.330658,204.751602 465.628723,206.510086 
	C465.989960,213.326050 465.982758,219.589417 465.975586,225.852783 
z"/>
<path fill="#A2B9E1" opacity="1.000000" stroke="none" 
	d="
M466.340759,225.932388 
	C465.982758,219.589417 465.989960,213.326050 465.986725,206.603745 
	C472.332520,204.473709 473.669403,202.656952 473.670959,195.372421 
	C473.682495,141.395477 473.677063,87.418526 473.680176,33.441578 
	C473.680298,31.609438 473.632690,29.772196 473.746979,27.946070 
	C474.169739,21.190044 479.117615,16.208002 485.508026,16.031956 
	C491.437836,15.868597 496.881714,20.651190 497.841980,26.955622 
	C498.041107,28.263039 497.990814,29.614290 497.990875,30.945341 
	C497.996643,176.050034 498.003967,321.154724 497.983795,466.259430 
	C497.981873,480.106720 490.252502,491.243500 477.633392,495.908691 
	C464.864380,500.629242 449.953064,497.389893 441.799805,486.866272 
	C438.198608,482.218079 434.898071,475.989227 434.647705,470.336823 
	C433.780609,450.761902 434.313354,431.124969 434.313354,411.003082 
	C437.672913,411.003082 440.791718,411.017639 443.910339,411.000671 
	C461.959595,410.902557 473.600983,399.397278 473.651154,381.305481 
	C473.739868,349.319397 473.677551,317.332855 473.677795,285.346527 
	C473.677917,268.853577 473.645142,252.360519 473.695068,235.867722 
	C473.710266,230.841614 472.287018,226.993301 466.340759,225.932388 
z"/>
<path fill="#030302" opacity="1.000000" stroke="none" 
	d="
M33.256996,237.337860 
	C33.241512,193.402130 33.238510,149.907425 33.241013,106.412727 
	C33.241558,96.954697 35.220417,94.964630 44.610828,94.964500 
	C159.930130,94.962921 275.249420,94.962967 390.568726,94.964455 
	C399.959290,94.964577 401.933044,96.948387 401.933533,106.383400 
	C401.935791,149.044876 401.937012,191.706345 401.932617,234.367813 
	C401.931732,243.086868 399.784485,245.247513 391.039337,245.247986 
	C275.386749,245.254181 159.734161,245.253937 44.081573,245.248062 
	C36.352951,245.247681 34.947903,244.249268 33.256996,237.337860 
M278.499908,230.245758 
	C314.562714,230.245758 350.625549,230.245758 386.640656,230.245758 
	C386.640656,189.748962 386.640656,150.011856 386.640656,110.225586 
	C273.797943,110.225586 161.245193,110.225586 48.485306,110.225586 
	C48.485306,150.221161 48.485306,189.958466 48.485306,230.245773 
	C124.982780,230.245773 201.241333,230.245773 278.499908,230.245758 
z"/>
<path fill="#040404" opacity="1.000000" stroke="none" 
	d="
M125.000076,270.812317 
	C143.665802,270.812622 161.831543,270.796997 179.997223,270.821075 
	C187.394028,270.830872 189.821198,273.260101 189.823776,280.741577 
	C189.841827,332.905518 189.841171,385.069458 189.824585,437.233398 
	C189.822205,444.742462 187.398254,447.240631 180.065552,447.244141 
	C134.401276,447.265930 88.736992,447.265381 43.072723,447.245056 
	C35.662476,447.241730 33.249306,444.803131 33.246429,437.299957 
	C33.226440,385.136017 33.226963,332.972076 33.245594,280.808136 
	C33.248337,273.118256 35.641396,270.821167 43.504486,270.817474 
	C70.503014,270.804840 97.501541,270.812439 125.000076,270.812317 
M168.405869,432.229706 
	C170.362915,432.229706 172.319977,432.229706 174.461685,432.229706 
	C174.461685,383.187683 174.461685,334.656586 174.461685,286.082581 
	C132.336197,286.082581 90.568428,286.082581 48.627518,286.082581 
	C48.627518,334.854004 48.627518,383.376831 48.627518,432.229767 
	C88.477219,432.229767 127.950905,432.229767 168.405869,432.229706 
z"/>
<path fill="#050506" opacity="1.000000" stroke="none" 
	d="
M167.000153,464.740112 
	C241.789108,464.740143 316.078064,464.739502 390.367035,464.741241 
	C398.159210,464.741425 401.712494,466.957581 401.895538,471.909576 
	C402.088593,477.131897 398.252258,479.757751 390.390930,479.757874 
	C275.126465,479.759735 159.861984,479.759186 44.597500,479.759155 
	C43.931232,479.759155 43.264561,479.773621 42.598759,479.755890 
	C36.855785,479.603027 33.317398,476.716888 33.301590,472.179596 
	C33.285721,467.625275 36.750690,464.758606 42.574165,464.754883 
	C83.882812,464.728394 125.191475,464.740417 167.000153,464.740112 
z"/>
<path fill="#040405" opacity="1.000000" stroke="none" 
	d="
M282.000122,270.811066 
	C318.492035,270.811127 354.483978,270.809814 390.475891,270.815399 
	C392.140961,270.815643 393.825867,270.725952 395.467102,270.941040 
	C399.306152,271.444153 401.969482,274.048584 401.614532,277.553894 
	C401.347992,280.186523 399.141602,283.047607 397.014252,284.911469 
	C395.685547,286.075592 392.899414,285.790314 390.766998,285.791840 
	C335.945984,285.831482 281.124969,285.823181 226.303940,285.822571 
	C225.304199,285.822540 224.300583,285.869476 223.305374,285.799957 
	C218.349442,285.453705 215.069382,282.358429 215.126495,278.121368 
	C215.183792,273.869781 218.495636,270.852966 223.513123,270.837799 
	C242.841949,270.779388 262.171082,270.812256 282.000122,270.811066 
z"/>
<path fill="#020202" opacity="1.000000" stroke="none" 
	d="
M231.042572,318.033661 
	C227.884537,318.022705 225.209564,318.145569 222.554291,317.970337 
	C218.246857,317.686127 215.219437,314.612274 215.129883,310.679901 
	C215.036575,306.582642 218.218216,303.385406 222.759521,303.056763 
	C223.754364,302.984772 224.758438,303.037323 225.758255,303.037292 
	C280.916962,303.036804 336.075684,303.035950 391.234406,303.041443 
	C392.732666,303.041595 394.290222,302.859436 395.717712,303.196289 
	C399.568237,304.104950 401.895142,306.676666 401.820801,310.644043 
	C401.746948,314.583740 399.430206,317.164856 395.498657,317.879547 
	C393.719147,318.203064 391.843628,318.028992 390.011658,318.029205 
	C337.185913,318.034698 284.360199,318.033661 231.042572,318.033661 
z"/>
<path fill="#050506" opacity="1.000000" stroke="none" 
	d="
M287.000183,367.739929 
	C321.659332,367.739929 355.818512,367.737732 389.977661,367.746033 
	C391.808716,367.746460 393.659698,367.681091 395.466736,367.914520 
	C399.304260,368.410217 401.454224,370.916443 401.798828,374.557617 
	C402.148224,378.249725 400.326233,381.048004 396.678131,382.153168 
	C394.970001,382.670654 393.076538,382.734985 391.266907,382.735901 
	C336.112366,382.764221 280.957825,382.762360 225.803284,382.742859 
	C224.151932,382.742279 222.440201,382.736359 220.861298,382.328156 
	C216.954605,381.317993 214.877991,378.522461 215.232224,374.600159 
	C215.580597,370.742859 217.913788,368.117218 222.019241,367.870178 
	C225.672852,367.650330 229.346893,367.745880 233.011932,367.744019 
	C250.841339,367.734955 268.670746,367.739929 287.000183,367.739929 
z"/>
<path fill="#010101" opacity="1.000000" stroke="none" 
	d="
M268.000000,400.003479 
	C309.158417,400.003479 349.816833,400.002289 390.475250,400.007599 
	C392.140350,400.007812 393.848083,399.842804 395.462128,400.146698 
	C399.376251,400.883759 401.769684,403.420959 401.812225,407.364288 
	C401.857239,411.538330 399.435669,414.172974 395.259430,414.901703 
	C393.962860,415.127899 392.600220,414.993744 391.267853,414.993805 
	C336.112366,414.996918 280.956909,414.996460 225.801437,414.996368 
	C224.968277,414.996368 224.133789,415.025726 223.302155,414.989868 
	C218.375061,414.777313 215.063675,411.697815 215.127502,407.405914 
	C215.190918,403.141418 218.507019,400.063751 223.509201,400.036163 
	C238.172424,399.955261 252.836349,400.004944 268.000000,400.003479 
z"/>
<path fill="#050506" opacity="1.000000" stroke="none" 
	d="
M262.000183,432.240601 
	C304.823883,432.240601 347.147552,432.240540 389.471252,432.240967 
	C390.804260,432.240967 392.140594,432.186279 393.469727,432.259521 
	C398.697144,432.547760 402.115021,435.779480 401.892700,440.173187 
	C401.677612,444.423859 398.431152,447.223083 393.273193,447.233368 
	C367.945740,447.283875 342.618103,447.259308 317.290558,447.259918 
	C287.130768,447.260620 256.970947,447.260803 226.811157,447.257721 
	C225.311935,447.257568 223.808228,447.291992 222.314316,447.193451 
	C217.968063,446.906769 215.494186,444.317200 215.225174,440.216156 
	C214.949890,436.019409 217.397507,433.194397 221.535950,432.521454 
	C224.464142,432.045258 227.512360,432.256775 230.507202,432.249817 
	C240.838150,432.225769 251.169159,432.240570 262.000183,432.240601 
z"/>
<path fill="#050506" opacity="1.000000" stroke="none" 
	d="
M265.999817,350.260101 
	C251.836731,350.259796 238.173599,350.282196 224.510605,350.248596 
	C218.644470,350.234161 215.190125,347.488495 215.126572,342.944122 
	C215.063110,338.406494 218.594696,335.273468 224.313278,335.268982 
	C280.465179,335.224792 336.617157,335.223999 392.769012,335.270569 
	C398.467010,335.275299 401.991943,338.452789 401.895111,342.999115 
	C401.798248,347.548157 398.372314,350.247528 392.466766,350.250122 
	C350.477783,350.268555 308.488831,350.260040 265.999817,350.260101 
z"/>
<path fill="#FDDE7C" opacity="1.000000" stroke="none" 
	d="
M277.999878,230.245758 
	C201.241333,230.245773 124.982780,230.245773 48.485306,230.245773 
	C48.485306,189.958466 48.485306,150.221161 48.485306,110.225586 
	C161.245193,110.225586 273.797943,110.225586 386.640656,110.225586 
	C386.640656,150.011856 386.640656,189.748962 386.640656,230.245758 
	C350.625549,230.245758 314.562714,230.245758 277.999878,230.245758 
M207.190689,140.377243 
	C211.425201,161.572769 215.651260,182.769989 219.899887,203.962692 
	C221.040756,209.653580 223.846207,212.582977 228.384750,212.949844 
	C233.043304,213.326431 236.423370,210.634995 238.237289,204.875198 
	C241.879593,193.309677 245.434967,181.716797 249.046570,170.141556 
	C249.910767,167.371826 250.854736,164.626999 252.183502,160.590302 
	C257.054718,176.340561 261.476135,190.713028 265.951843,205.068573 
	C267.649597,210.514114 270.934418,213.173126 275.458679,212.964981 
	C279.995758,212.756256 283.045258,209.827988 284.173126,204.259628 
	C288.694824,181.936249 293.171082,159.603622 297.622711,137.266174 
	C298.590393,132.410721 296.325714,128.670685 292.008942,127.681458 
	C287.700287,126.694099 284.092010,129.135376 282.992828,134.031967 
	C281.864288,139.059448 280.963013,144.137741 279.943634,149.190033 
	C277.984406,158.900604 276.011963,168.608536 273.798401,179.534912 
	C272.597229,175.709076 271.789215,173.185486 271.012238,170.652374 
	C267.261383,158.423706 263.533417,146.188019 259.764862,133.964813 
	C258.582306,130.129257 256.203857,127.366768 251.958298,127.455498 
	C248.015793,127.537910 245.589462,129.949692 244.625092,133.786682 
	C244.422974,134.590958 244.146881,135.376846 243.899872,136.169647 
	C239.511948,150.253784 235.123245,164.337662 230.389740,179.528671 
	C229.429291,174.799377 228.699890,171.241150 227.984711,167.680054 
	C225.693008,156.269196 223.514236,144.834106 221.065674,133.457062 
	C220.072205,128.841019 216.256454,126.518059 212.234375,127.490440 
	C208.044983,128.503281 205.871216,131.979767 206.549881,136.606003 
	C206.694687,137.593124 206.889297,138.572906 207.190689,140.377243 
M77.960556,170.555817 
	C77.960556,167.179184 77.960556,163.802551 77.960556,159.041092 
	C89.517418,175.747604 100.240166,191.132919 110.816826,206.618011 
	C113.504486,210.552979 116.682426,213.268158 121.582062,211.707764 
	C126.513878,210.137131 127.473282,205.939285 127.427185,201.269623 
	C127.215118,179.790146 127.086899,158.309860 126.889626,136.830231 
	C126.833809,130.752411 123.813034,127.106209 119.122093,127.248055 
	C114.550514,127.386284 111.884354,130.820465 111.906631,136.721649 
	C111.957550,150.209351 112.068832,163.696823 112.123726,177.184525 
	C112.128471,178.348648 111.897011,179.513718 111.695023,181.446106 
	C100.005112,164.521805 88.831505,148.387070 77.713150,132.214355 
	C75.353989,128.782730 72.581970,126.444908 68.142685,127.880493 
	C63.701576,129.316650 62.912212,132.833206 62.925579,136.996704 
	C62.996670,159.143234 62.947582,181.290115 62.967396,203.436859 
	C62.972858,209.543854 65.891907,213.108734 70.641663,212.958664 
	C75.245293,212.813232 77.928001,209.411804 77.948814,203.510605 
	C77.986397,192.853638 77.960144,182.196472 77.960556,170.555817 
M325.658478,208.980988 
	C329.953033,210.225952 334.174011,211.929520 338.555511,212.632721 
	C353.683472,215.060608 368.052948,206.426300 371.564270,193.149765 
	C374.782135,180.982803 367.621124,169.892838 352.664154,163.858017 
	C347.272552,161.682587 341.930847,159.376389 336.490936,157.330383 
	C333.170898,156.081696 330.138184,154.595871 330.414093,150.512680 
	C330.713989,146.074966 333.743835,143.896835 337.830627,142.902054 
	C345.239685,141.098541 351.505310,143.760696 357.530792,147.708755 
	C361.738098,150.465515 366.101288,149.802155 368.566711,146.281097 
	C371.094421,142.671143 370.294312,138.405136 366.086426,135.455338 
	C357.053131,129.122818 347.197845,125.833679 335.985901,127.908470 
	C324.497986,130.034332 316.512543,138.217560 315.383575,149.221558 
	C314.403656,158.772278 319.794373,166.537140 330.688232,171.133102 
	C337.419617,173.972992 344.274231,176.536789 350.909851,179.581223 
	C354.461151,181.210587 358.214111,184.041000 356.839264,188.281326 
	C355.799774,191.487366 352.663239,194.307022 349.853027,196.531921 
	C348.246979,197.803421 345.423584,197.913239 343.152374,197.898880 
	C336.045044,197.854034 329.909668,195.295654 324.726440,190.308395 
	C321.056458,186.777191 316.678925,186.688232 313.622925,189.720627 
	C310.328247,192.989868 310.444244,197.414246 314.531006,201.082291 
	C317.716248,203.941177 321.464813,206.172424 325.658478,208.980988 
M157.604904,213.004166 
	C165.098770,213.003967 172.593079,213.053482 180.086349,212.986938 
	C185.512192,212.938751 188.865646,210.081436 188.963333,205.623123 
	C189.064316,201.014008 185.573868,198.043884 179.875381,198.006454 
	C173.096313,197.961929 166.316696,197.995956 159.506165,197.995956 
	C159.506165,190.972458 159.506165,184.448242 159.506165,177.674393 
	C165.375610,177.674393 170.861923,177.689453 176.348129,177.670532 
	C183.050247,177.647415 186.678604,175.073959 186.810883,170.289215 
	C186.946396,165.387848 183.205048,162.690643 176.179443,162.665375 
	C170.576141,162.645218 164.972702,162.661301 159.392151,162.661301 
	C159.392151,155.511688 159.392151,149.085953 159.392151,142.184677 
	C166.440613,142.184677 173.227402,142.229416 180.013290,142.170639 
	C185.532455,142.122849 188.836761,139.397263 188.956802,134.957611 
	C189.082230,130.317947 185.636948,127.258156 179.919525,127.200569 
	C171.427322,127.115036 162.933594,127.154778 154.440643,127.182846 
	C146.527740,127.209000 144.120651,129.674164 144.115479,137.753586 
	C144.102036,158.736374 144.109909,179.719177 144.111206,200.701965 
	C144.111877,211.336884 145.807419,212.999420 157.604904,213.004166 
z"/>
<path fill="#DE74A4" opacity="1.000000" stroke="none" 
	d="
M167.915222,432.229736 
	C127.950905,432.229767 88.477219,432.229767 48.627518,432.229767 
	C48.627518,383.376831 48.627518,334.854004 48.627518,286.082581 
	C90.568428,286.082581 132.336197,286.082581 174.461685,286.082581 
	C174.461685,334.656586 174.461685,383.187683 174.461685,432.229706 
	C172.319977,432.229706 170.362915,432.229706 167.915222,432.229736 
z"/>
<path fill="#040402" opacity="1.000000" stroke="none" 
	d="
M207.125824,139.966660 
	C206.889297,138.572906 206.694687,137.593124 206.549881,136.606003 
	C205.871216,131.979767 208.044983,128.503281 212.234375,127.490440 
	C216.256454,126.518059 220.072205,128.841019 221.065674,133.457062 
	C223.514236,144.834106 225.693008,156.269196 227.984711,167.680054 
	C228.699890,171.241150 229.429291,174.799377 230.389740,179.528671 
	C235.123245,164.337662 239.511948,150.253784 243.899872,136.169647 
	C244.146881,135.376846 244.422974,134.590958 244.625092,133.786682 
	C245.589462,129.949692 248.015793,127.537910 251.958298,127.455498 
	C256.203857,127.366768 258.582306,130.129257 259.764862,133.964813 
	C263.533417,146.188019 267.261383,158.423706 271.012238,170.652374 
	C271.789215,173.185486 272.597229,175.709076 273.798401,179.534912 
	C276.011963,168.608536 277.984406,158.900604 279.943634,149.190033 
	C280.963013,144.137741 281.864288,139.059448 282.992828,134.031967 
	C284.092010,129.135376 287.700287,126.694099 292.008942,127.681458 
	C296.325714,128.670685 298.590393,132.410721 297.622711,137.266174 
	C293.171082,159.603622 288.694824,181.936249 284.173126,204.259628 
	C283.045258,209.827988 279.995758,212.756256 275.458679,212.964981 
	C270.934418,213.173126 267.649597,210.514114 265.951843,205.068573 
	C261.476135,190.713028 257.054718,176.340561 252.183502,160.590302 
	C250.854736,164.626999 249.910767,167.371826 249.046570,170.141556 
	C245.434967,181.716797 241.879593,193.309677 238.237289,204.875198 
	C236.423370,210.634995 233.043304,213.326431 228.384750,212.949844 
	C223.846207,212.582977 221.040756,209.653580 219.899887,203.962692 
	C215.651260,182.769989 211.425201,161.572769 207.125824,139.966660 
z"/>
<path fill="#030201" opacity="1.000000" stroke="none" 
	d="
M77.960556,171.047607 
	C77.960144,182.196472 77.986397,192.853638 77.948814,203.510605 
	C77.928001,209.411804 75.245293,212.813232 70.641663,212.958664 
	C65.891907,213.108734 62.972858,209.543854 62.967396,203.436859 
	C62.947582,181.290115 62.996670,159.143234 62.925579,136.996704 
	C62.912212,132.833206 63.701576,129.316650 68.142685,127.880493 
	C72.581970,126.444908 75.353989,128.782730 77.713150,132.214355 
	C88.831505,148.387070 100.005112,164.521805 111.695023,181.446106 
	C111.897011,179.513718 112.128471,178.348648 112.123726,177.184525 
	C112.068832,163.696823 111.957550,150.209351 111.906631,136.721649 
	C111.884354,130.820465 114.550514,127.386284 119.122093,127.248055 
	C123.813034,127.106209 126.833809,130.752411 126.889626,136.830231 
	C127.086899,158.309860 127.215118,179.790146 127.427185,201.269623 
	C127.473282,205.939285 126.513878,210.137131 121.582062,211.707764 
	C116.682426,213.268158 113.504486,210.552979 110.816826,206.618011 
	C100.240166,191.132919 89.517418,175.747604 77.960556,159.041092 
	C77.960556,163.802551 77.960556,167.179184 77.960556,171.047607 
z"/>
<path fill="#040402" opacity="1.000000" stroke="none" 
	d="
M325.310791,208.831787 
	C321.464813,206.172424 317.716248,203.941177 314.531006,201.082291 
	C310.444244,197.414246 310.328247,192.989868 313.622925,189.720627 
	C316.678925,186.688232 321.056458,186.777191 324.726440,190.308395 
	C329.909668,195.295654 336.045044,197.854034 343.152374,197.898880 
	C345.423584,197.913239 348.246979,197.803421 349.853027,196.531921 
	C352.663239,194.307022 355.799774,191.487366 356.839264,188.281326 
	C358.214111,184.041000 354.461151,181.210587 350.909851,179.581223 
	C344.274231,176.536789 337.419617,173.972992 330.688232,171.133102 
	C319.794373,166.537140 314.403656,158.772278 315.383575,149.221558 
	C316.512543,138.217560 324.497986,130.034332 335.985901,127.908470 
	C347.197845,125.833679 357.053131,129.122818 366.086426,135.455338 
	C370.294312,138.405136 371.094421,142.671143 368.566711,146.281097 
	C366.101288,149.802155 361.738098,150.465515 357.530792,147.708755 
	C351.505310,143.760696 345.239685,141.098541 337.830627,142.902054 
	C333.743835,143.896835 330.713989,146.074966 330.414093,150.512680 
	C330.138184,154.595871 333.170898,156.081696 336.490936,157.330383 
	C341.930847,159.376389 347.272552,161.682587 352.664154,163.858017 
	C367.621124,169.892838 374.782135,180.982803 371.564270,193.149765 
	C368.052948,206.426300 353.683472,215.060608 338.555511,212.632721 
	C334.174011,211.929520 329.953033,210.225952 325.310791,208.831787 
z"/>
<path fill="#040402" opacity="1.000000" stroke="none" 
	d="
M157.124207,213.004166 
	C145.807419,212.999420 144.111877,211.336884 144.111206,200.701965 
	C144.109909,179.719177 144.102036,158.736374 144.115479,137.753586 
	C144.120651,129.674164 146.527740,127.209000 154.440643,127.182846 
	C162.933594,127.154778 171.427322,127.115036 179.919525,127.200569 
	C185.636948,127.258156 189.082230,130.317947 188.956802,134.957611 
	C188.836761,139.397263 185.532455,142.122849 180.013290,142.170639 
	C173.227402,142.229416 166.440613,142.184677 159.392151,142.184677 
	C159.392151,149.085953 159.392151,155.511688 159.392151,162.661301 
	C164.972702,162.661301 170.576141,162.645218 176.179443,162.665375 
	C183.205048,162.690643 186.946396,165.387848 186.810883,170.289215 
	C186.678604,175.073959 183.050247,177.647415 176.348129,177.670532 
	C170.861923,177.689453 165.375610,177.674393 159.506165,177.674393 
	C159.506165,184.448242 159.506165,190.972458 159.506165,197.995956 
	C166.316696,197.995956 173.096313,197.961929 179.875381,198.006454 
	C185.573868,198.043884 189.064316,201.014008 188.963333,205.623123 
	C188.865646,210.081436 185.512192,212.938751 180.086349,212.986938 
	C172.593079,213.053482 165.098770,213.003967 157.124207,213.004166 
z"/>
</svg>